<?xml version="1.0" encoding="utf-8"?>
<!-- Generator: Adobe Illustrator 16.0.0, SVG Export Plug-In . SVG Version: 6.00 Build 0)  -->
<!DOCTYPE svg PUBLIC "-//W3C//DTD SVG 1.1//EN" "http://www.w3.org/Graphics/SVG/1.1/DTD/svg11.dtd">
<svg version="1.1" id="Layer_1" xmlns="http://www.w3.org/2000/svg" xmlns:xlink="http://www.w3.org/1999/xlink" x="0px" y="0px"
	 width="463.573px" height="73.707px" viewBox="171.787 666.773 463.573 73.707"
	 enable-background="new 171.787 666.773 463.573 73.707" xml:space="preserve">
<g>
	<path fill="#2D9ED3" d="M227.787,694.026c0,16.107-11.413,27.2-27.947,27.2c-16.64,0-28.053-11.093-28.053-27.2
		c0-16.213,11.414-27.199,28.053-27.199C216.374,666.827,227.787,677.813,227.787,694.026z M183.413,694.134
		c0,10.399,6.773,17.439,16.427,17.439c9.6,0,16.32-7.04,16.32-17.439c0-10.294-6.773-17.334-16.32-17.334
		C190.187,676.8,183.413,683.84,183.413,694.134z"/>
	<path fill="#2D9ED3" d="M296.32,694.24c0,16.053-10.08,27.04-25.387,27.04c-8.586,0-15.04-3.414-18.933-9.653v28.854h-11.573V667.2
		H252v9.28c3.947-6.24,10.4-9.653,18.773-9.653C285.973,666.827,296.32,677.92,296.32,694.24z M284.64,693.813
		c0-9.974-6.773-17.333-16.32-17.333c-9.546,0-16.32,7.253-16.32,17.333c0,10.399,6.773,17.547,16.32,17.547
		C277.867,711.36,284.64,704.106,284.64,693.813z"/>
	<path fill="#2D9ED3" d="M355.627,698.453h-40.533c1.812,8.267,8.159,13.387,16.64,13.387c5.866,0,11.2-2.24,15.146-6.24
		l6.134,6.561c-5.227,5.76-12.907,9.066-22.187,9.066c-16.534,0-27.414-10.986-27.414-27.146c0-16.213,11.2-27.2,27.146-27.307
		C349.387,666.827,357.014,679.094,355.627,698.453z M345.547,690.026c-0.427-8.693-6.134-13.92-14.934-13.92
		c-8.479,0-14.4,5.334-15.733,13.92H345.547z"/>
	<path fill="#2D9ED3" d="M419.04,687.467v33.387h-11.573V690.72c0-8.053-4.854-13.013-12.907-13.013
		c-8.853,0.106-14.399,6.239-15.199,14.613v28.533h-11.573V667.2h11.573v10.293c3.84-7.467,10.666-10.666,19.786-10.666
		C411.573,666.827,419.04,674.667,419.04,687.467z"/>
	<path fill="#602480" d="M478.72,675.573l-6.347,7.467c-3.733-3.84-8.854-6.134-15.307-6.026c-9.279,0-15.946,6.933-15.946,17.119
		c0,10.188,6.667,17.12,15.946,17.12c6.773,0,12.214-2.239,15.84-6.453l6.454,6.453c-4.854,6.347-12.587,9.974-22.773,9.974
		c-15.947,0-27.04-10.986-27.04-27.146c0-16.214,11.093-27.307,27.04-27.307C466.24,666.827,473.76,669.92,478.72,675.573z"/>
	<path fill="#602480" d="M521.387,714.293c-3.84,4.747-9.974,7.04-17.76,7.04c-11.573,0-18.88-7.146-18.88-16.64
		c0-9.76,7.359-16.054,20.267-16.106h16.213v-1.601c0-6.772-4.32-10.772-12.8-10.772c-5.12,0-10.507,1.812-15.84,5.439l-4.747-8.054
		c7.467-4.426,12.907-6.772,23.094-6.772c13.813,0,21.6,7.04,21.653,18.88l0.106,35.2H521.28v-6.614H521.387z M521.28,702.026v-4.96
		h-14.507c-7.573,0-11.094,2.027-11.094,7.146c0,4.854,3.947,7.947,10.4,7.947C514.293,712.16,520.64,707.84,521.28,702.026z"/>
	<path fill="#602480" d="M559.894,677.92c3.626-7.253,10.08-11.094,18.56-11.094v11.094c-10.773-0.587-17.653,5.76-18.56,14.934
		v28.053h-11.627V667.2h11.573v10.72H559.894z"/>
	<path fill="#602480" d="M635.2,698.453h-40.533c1.813,8.267,8.159,13.387,16.64,13.387c5.867,0,11.2-2.24,15.146-6.24l6.134,6.561
		c-5.227,5.76-12.907,9.066-22.187,9.066c-16.533,0-27.414-10.986-27.414-27.146c0-16.213,11.2-27.2,27.146-27.307
		C628.96,666.827,636.587,679.094,635.2,698.453z M625.12,690.026c-0.427-8.693-6.134-13.92-14.934-13.92
		c-8.479,0-14.399,5.334-15.733,13.92H625.12z"/>
</g>
</svg>
