<?xml version="1.0" encoding="utf-8"?>
<!-- Generator: Adobe Illustrator 16.0.0, SVG Export Plug-In . SVG Version: 6.00 Build 0)  -->
<!DOCTYPE svg PUBLIC "-//W3C//DTD SVG 1.1//EN" "http://www.w3.org/Graphics/SVG/1.1/DTD/svg11.dtd">
<svg version="1.1" id="Layer_1" xmlns="http://www.w3.org/2000/svg" xmlns:xlink="http://www.w3.org/1999/xlink" x="0px" y="0px"
	 width="556.267px" height="687.36px" viewBox="121.653 53.12 556.267 687.36"
	 enable-background="new 121.653 53.12 556.267 687.36" xml:space="preserve">
<g>
	<path fill="#2D9ED3" d="M227.787,694.026c0,16.107-11.413,27.2-27.947,27.2c-16.64,0-28.053-11.093-28.053-27.2
		c0-16.213,11.414-27.199,28.053-27.199C216.374,666.827,227.787,677.813,227.787,694.026z M183.413,694.134
		c0,10.399,6.773,17.439,16.427,17.439c9.6,0,16.32-7.04,16.32-17.439c0-10.294-6.773-17.334-16.32-17.334
		C190.187,676.8,183.413,683.84,183.413,694.134z"/>
	<path fill="#2D9ED3" d="M296.32,694.24c0,16.053-10.08,27.04-25.387,27.04c-8.586,0-15.04-3.414-18.933-9.653v28.854h-11.573V667.2
		H252v9.28c3.947-6.24,10.4-9.653,18.773-9.653C285.973,666.827,296.32,677.92,296.32,694.24z M284.64,693.813
		c0-9.974-6.773-17.333-16.32-17.333c-9.546,0-16.32,7.253-16.32,17.333c0,10.399,6.773,17.547,16.32,17.547
		C277.867,711.36,284.64,704.106,284.64,693.813z"/>
	<path fill="#2D9ED3" d="M355.627,698.453h-40.533c1.812,8.267,8.159,13.387,16.64,13.387c5.866,0,11.2-2.24,15.146-6.24
		l6.134,6.561c-5.227,5.76-12.907,9.066-22.187,9.066c-16.534,0-27.414-10.986-27.414-27.146c0-16.213,11.2-27.2,27.146-27.307
		C349.387,666.827,357.014,679.094,355.627,698.453z M345.547,690.026c-0.427-8.693-6.134-13.92-14.934-13.92
		c-8.479,0-14.4,5.334-15.733,13.92H345.547z"/>
	<path fill="#2D9ED3" d="M419.04,687.467v33.387h-11.573V690.72c0-8.053-4.854-13.013-12.907-13.013
		c-8.853,0.106-14.399,6.239-15.199,14.613v28.533h-11.573V667.2h11.573v10.293c3.84-7.467,10.666-10.666,19.786-10.666
		C411.573,666.827,419.04,674.667,419.04,687.467z"/>
	<path fill="#602480" d="M478.72,675.573l-6.347,7.467c-3.733-3.84-8.854-6.134-15.307-6.026c-9.279,0-15.946,6.933-15.946,17.119
		c0,10.188,6.667,17.12,15.946,17.12c6.773,0,12.214-2.239,15.84-6.453l6.454,6.453c-4.854,6.347-12.587,9.974-22.773,9.974
		c-15.947,0-27.04-10.986-27.04-27.146c0-16.214,11.093-27.307,27.04-27.307C466.24,666.827,473.76,669.92,478.72,675.573z"/>
	<path fill="#602480" d="M521.387,714.293c-3.84,4.747-9.974,7.04-17.76,7.04c-11.573,0-18.88-7.146-18.88-16.64
		c0-9.76,7.359-16.054,20.267-16.106h16.213v-1.601c0-6.772-4.32-10.772-12.8-10.772c-5.12,0-10.507,1.812-15.84,5.439l-4.747-8.054
		c7.467-4.426,12.907-6.772,23.094-6.772c13.813,0,21.6,7.04,21.653,18.88l0.106,35.2H521.28v-6.614H521.387z M521.28,702.026v-4.96
		h-14.507c-7.573,0-11.094,2.027-11.094,7.146c0,4.854,3.947,7.947,10.4,7.947C514.293,712.16,520.64,707.84,521.28,702.026z"/>
	<path fill="#602480" d="M559.894,677.92c3.626-7.253,10.08-11.094,18.56-11.094v11.094c-10.773-0.587-17.653,5.76-18.56,14.934
		v28.053h-11.627V667.2h11.573v10.72H559.894z"/>
	<path fill="#602480" d="M635.2,698.453h-40.533c1.813,8.267,8.159,13.387,16.64,13.387c5.867,0,11.2-2.24,15.146-6.24l6.134,6.561
		c-5.227,5.76-12.907,9.066-22.187,9.066c-16.533,0-27.414-10.986-27.414-27.146c0-16.213,11.2-27.2,27.146-27.307
		C628.96,666.827,636.587,679.094,635.2,698.453z M625.12,690.026c-0.427-8.693-6.134-13.92-14.934-13.92
		c-8.479,0-14.399,5.334-15.733,13.92H625.12z"/>
</g>
<g>
	<g>
		<polygon fill="#602480" points="234.667,164.587 248.213,182.72 221.013,203.146 207.413,184.96 		"/>
		<polygon fill="#602480" points="289.12,123.787 302.72,141.92 275.467,162.347 261.867,144.16 		"/>
		<polygon fill="#602480" points="544.64,136.16 515.946,130.667 519.733,108.32 548.427,113.76 		"/>
		<polygon fill="#602480" points="452.64,96.907 486.187,102.613 482.4,124.96 448.854,119.253 		"/>
		<polygon fill="#602480" points="385.547,85.44 419.094,91.146 415.307,113.547 381.76,107.787 		"/>
		<polygon fill="#602480" points="321.227,443.946 337.92,473.6 318.134,484.693 301.44,455.04 		"/>
		
			<rect x="269.337" y="393.624" transform="matrix(0.4895 0.872 -0.872 0.4895 499.304 -42.9687)" fill="#602480" width="34.027" height="22.666"/>
		<polygon fill="#602480" points="456.96,493.333 467.573,513.333 437.547,529.333 426.88,509.28 		"/>
		
			<rect x="495.964" y="462.353" transform="matrix(0.4698 0.8828 -0.8828 0.4698 692.1284 -193.6716)" fill="#602480" width="22.667" height="34.028"/>
		<polygon fill="#602480" points="577.12,429.387 587.733,449.44 557.707,465.387 547.04,445.387 		"/>
		<path fill="#602480" d="M578.026,168.8L578.026,168.8l-4.159-0.053c-14.773,0-35.36-13.44-35.36-35.36
			c0-24.32,14.187-40.693,35.36-40.693c25.119,0,40.693,18.347,40.693,35.36c0,15.68-4.534,27.147-13.494,33.974
			C593.227,168.053,584.16,168.8,578.026,168.8z M573.867,115.36c-11.041,0-12.641,11.253-12.641,18.027
			c0,8.747,10.08,12.64,12.641,12.64l4.159,0.053l0,0c3.04,0,6.88-0.213,9.28-2.08c2.934-2.293,4.587-7.947,4.587-16
			C591.894,123.733,586.453,115.36,573.867,115.36z"/>
		<path fill="#602480" d="M641.387,435.467L641.387,435.467l-4.16-0.054c-14.773,0-35.36-13.439-35.36-35.36
			c0-24.32,14.187-40.693,35.36-40.693c25.12,0,40.693,18.347,40.693,35.36c0,15.68-4.533,27.147-13.493,33.973
			C656.587,434.773,647.52,435.467,641.387,435.467z M637.227,382.08c-11.04,0-12.64,11.253-12.64,18.026
			c0,8.747,10.08,12.64,12.64,12.64l4.16,0.054l0,0c3.04,0,6.88-0.213,9.28-2.079c2.986-2.294,4.587-7.947,4.587-16
			C655.253,390.453,649.813,382.08,637.227,382.08z"/>
		<path fill="#602480" d="M551.36,606.293L551.36,606.293l-4.16-0.053c-14.773,0-35.36-13.44-35.36-35.36
			c0-24.319,14.187-40.693,35.36-40.693c25.12,0,40.693,18.347,40.693,35.36c0,15.68-4.533,27.146-13.493,33.973
			C566.507,605.6,557.493,606.293,551.36,606.293z M547.2,552.906c-11.04,0-12.641,11.254-12.641,18.027
			c0,8.746,10.08,12.64,12.641,12.64l4.16,0.054l0,0c3.04,0,6.88-0.214,9.279-2.08c2.934-2.294,4.587-7.947,4.587-16
			C565.174,561.28,559.787,552.906,547.2,552.906z"/>
		<path fill="#602480" d="M372.267,589.387L372.267,589.387l-4.16-0.054c-14.773,0-35.359-13.439-35.359-35.359
			c0-24.32,14.187-40.693,35.359-40.693c25.12,0,40.693,18.347,40.693,35.359c0,15.681-4.533,27.147-13.493,33.974
			C387.413,588.693,378.347,589.387,372.267,589.387z M368.106,535.946c-10.453,0-12.64,9.813-12.64,18.027
			c0,8.746,10.08,12.693,12.64,12.693l4.16,0.053l0,0c3.04,0,6.88-0.267,9.28-2.08c2.934-2.293,4.587-7.946,4.587-16
			C386.08,544.373,380.693,535.946,368.106,535.946z"/>
		<path fill="#602480" d="M231.626,546.293L231.626,546.293l-4.16-0.053c-14.773,0-35.36-13.44-35.36-35.36
			c0-24.373,14.187-40.693,35.36-40.693c25.12,0,40.693,18.347,40.693,35.36c0,15.68-4.534,27.146-13.494,33.974
			C246.773,545.6,237.76,546.293,231.626,546.293z M227.467,492.854c-11.04,0-12.64,11.307-12.64,18.026
			c0,8.747,10.08,12.64,12.64,12.64l4.16,0.054l0,0c3.04,0,6.88-0.213,9.28-2.08c2.933-2.293,4.586-7.946,4.586-16
			C245.44,501.28,240.053,492.854,227.467,492.854z"/>
		<path fill="#602480" d="M263.307,405.014L263.307,405.014l-4.16-0.054c-14.773,0-35.36-13.44-35.36-35.36
			c0-24.32,14.187-40.693,35.36-40.693c25.12,0,40.693,18.347,40.693,35.36c0,15.68-4.533,27.147-13.44,33.974
			C278.453,404.267,269.387,405.014,263.307,405.014z M259.146,351.573c-11.04,0-12.693,11.253-12.693,18.027
			c0,8.747,10.08,12.64,12.693,12.64l4.16,0.053l0,0c3.04,0,6.88-0.213,9.28-2.08c2.934-2.293,4.587-7.947,4.587-16
			C277.12,359.947,271.68,351.573,259.146,351.573z"/>
		<path fill="#602480" d="M186.027,229.28l7.68-5.76l-13.6-18.187l-8.32,6.187C180,215.627,184.96,222.613,186.027,229.28z"/>
		<path fill="#602480" d="M161.173,272.907L161.173,272.907l-4.16-0.053c-14.773,0-35.36-13.44-35.36-35.36
			c0-24.32,14.187-40.693,35.36-40.693c25.12,0,40.693,18.347,40.693,35.36c0,15.68-4.533,27.146-13.493,33.973
			C176.374,272.213,167.307,272.907,161.173,272.907z M157.066,219.467c-11.04,0-12.64,11.307-12.64,18.026
			c0,8.747,10.08,12.693,12.64,12.693l4.16,0.054l0,0c3.04,0,6.88-0.213,9.28-2.08c2.933-2.293,4.586-7.947,4.586-16
			C175.04,227.84,169.6,219.467,157.066,219.467z"/>
		<path fill="#602480" d="M337.44,93.813c0-2.293,0.213-4.48,0.479-6.613l-21.6,16.16l13.6,18.133l14.88-11.146
			C340.587,106.453,337.44,100.907,337.44,93.813z"/>
		<path fill="#602480" d="M365.6,129.227L365.6,129.227l-4.159-0.053c-14.773,0-35.36-13.44-35.36-35.36
			c0-24.32,14.187-40.693,35.36-40.693c25.119,0,40.693,18.347,40.693,35.36c0,15.68-4.534,27.146-13.494,33.973
			C380.8,128.533,371.733,129.227,365.6,129.227z M361.44,75.787c-11.04,0-12.641,11.253-12.641,18.027
			c0,8.747,10.08,12.64,12.641,12.64l4.159,0.054l0,0c3.04,0,6.881-0.213,9.28-2.08c2.934-2.293,4.587-7.947,4.587-16
			C379.467,84.213,374.026,75.787,361.44,75.787z"/>
		<path fill="#602480" d="M227.467,481.547c7.52,0,13.653,2.24,18.453,5.493l18.72-93.44c-2.133,0.053-4-0.053-5.44-0.053
			c-4.374,0-11.04-2.4-16.267-7.094l-19.093,95.414C225.013,481.76,226.133,481.547,227.467,481.547z"/>
		<path fill="#602480" d="M366.667,524.747l-12.054-21.494l-19.786,11.094l12.8,22.827
			C351.146,530.026,357.493,525.227,366.667,524.747z"/>
		<path fill="#602480" d="M344.64,558.72c-0.319-1.493-0.533-3.093-0.533-4.746c0-6.827,1.44-13.014,4.267-17.974l-91.626-30.934
			c0,0.16,0.053,0.374,0.053,0.533c0,10.454-2.293,17.174-5.653,21.547L344.64,558.72z"/>
		<path fill="#602480" d="M397.44,548.64c0,0.747-0.054,1.387-0.107,2.134l10.187-5.44l-10.666-20.053l-9.813,5.227
			C393.76,535.413,397.44,542.453,397.44,548.64z"/>
		<path fill="#602480" d="M615.094,408.96l-64.641,132.907c9.066,0.8,16,4.8,20.373,9.92l62.4-128.268
			C626.88,422.026,618.72,417.174,615.094,408.96z"/>
		<path fill="#602480" d="M369.333,109.76l-22.239,4.374l17.013,86.827c9.334,0.48,17.387,2.453,24.214,5.493L369.333,109.76z"/>
		<path fill="#602480" d="M280.586,348.053c5.12,4.693,7.894,10.773,7.894,16.16c0,1.867-0.107,3.626-0.213,5.28l46.453-21.173
			c-4.64-5.76-9.227-12.053-13.6-18.72L280.586,348.053z"/>
		<path fill="#602480" d="M297.866,259.84l-112-20.106c-1.92,14.507-9.387,19.467-16.64,21.066l68.907,93.547
			c3.253-7.467,9.333-12.586,18.24-13.493l-55.52-75.414l99.253,17.813c-1.547-6.613-2.399-13.387-2.399-20.107
			C297.707,262.08,297.813,260.96,297.866,259.84z"/>
		<path fill="#602480" d="M362.88,525.174c1.653-0.32,3.36-0.534,5.174-0.534c6.88,0,12.586,1.813,17.173,4.641l14.507-125.653
			c-5.174-0.641-11.146-3.414-21.493-11.52L362.88,525.174z"/>
		<path fill="#602480" d="M527.146,553.44c3.733-6.987,10.134-11.574,19.414-11.787L442.24,379.947
			c-5.547,5.173-11.573,10.347-17.601,14.56L527.146,553.44z"/>
		<polygon fill="#602480" points="404.48,363.2 404.693,360.96 403.52,361.76 		"/>
		<path fill="#602480" d="M597.12,150.88c-6.294,7.573-15.894,7.414-21.601,7.307l48.214,206.454l-127.84-55.093
			c-3.307,6.933-7.094,13.6-11.146,19.893l130.986,56.427c3.413-9.013,10.453-15.2,21.547-15.2c4.373,0,8.213,0.8,11.68,2.027
			L597.12,150.88z"/>
		<path fill="#602480" d="M497.333,229.066l69.707-72.32c-6.4-2.347-13.547-7.626-16.16-15.947l-69.227,71.894
			C487.84,217.173,493.174,222.72,497.333,229.066z"/>
	</g>
	<path fill="#2D9ED3" d="M445.174,220.64c-35.467,0-42.507,31.2-42.507,31.2s-5.653-31.2-42.561-31.2
		c-23.52,0-42.56,19.04-42.56,42.506c0,55.52,77.493,120.747,85.066,120.747c10.4,0,85.066-65.92,85.066-120.747
		C487.733,239.68,468.64,220.64,445.174,220.64z"/>
</g>
</svg>
