<?xml version="1.0" encoding="utf-8"?>
<!-- Generator: Adobe Illustrator 16.0.0, SVG Export Plug-In . SVG Version: 6.00 Build 0)  -->
<!DOCTYPE svg PUBLIC "-//W3C//DTD SVG 1.1//EN" "http://www.w3.org/Graphics/SVG/1.1/DTD/svg11.dtd">
<svg version="1.1"
	 id="svg2" xmlns:inkscape="http://www.inkscape.org/namespaces/inkscape" xmlns:sodipodi="http://sodipodi.sourceforge.net/DTD/sodipodi-0.dtd" xmlns:svg="http://www.w3.org/2000/svg" xmlns:rdf="http://www.w3.org/1999/02/22-rdf-syntax-ns#" xmlns:cc="http://creativecommons.org/ns#" xmlns:dc="http://purl.org/dc/elements/1.1/" inkscape:version="0.48.1 r9760" sodipodi:docname="oshw-logo.svg"
	 xmlns="http://www.w3.org/2000/svg" xmlns:xlink="http://www.w3.org/1999/xlink" x="0px" y="0px" width="182.53px"
	 height="182.53px" viewBox="95.735 40.881 182.53 182.53" enable-background="new 95.735 40.881 182.53 182.53"
	 xml:space="preserve">
<sodipodi:namedview  fit-margin-left="50" fit-margin-top="50" showgrid="false" inkscape:cy="-32.812977" inkscape:cx="192.71176" inkscape:zoom="1.226764" borderopacity="1.0" id="base" bordercolor="#666666" pagecolor="#ffffff" fit-margin-bottom="50" fit-margin-right="50" inkscape:window-maximized="0" inkscape:window-y="100" inkscape:pageshadow="2" inkscape:current-layer="layer1" inkscape:pageopacity="0.0" inkscape:window-x="240" inkscape:window-height="1466" inkscape:document-units="px" inkscape:window-width="1722">
	</sodipodi:namedview>
<g id="g3012" transform="matrix(1.0112144,0,0,-1.0112144,-166.40143,667.64946)" inkscape:label="openHardware">
	<g id="g3014">
		<g>
			<g id="g3016">
				<g id="g3022" transform="translate(602.2539,351.748)">
					<path id="path3024" inkscape:connector-curvature="0" d="M-163.502,181.392l-2.12,0.395c-0.541,0.099-1.426,0.264-1.967,0.364
						l-18.075,3.363c-0.541,0.1-1.131,0.607-1.311,1.128l-6.795,15.849c-0.253,0.49-0.204,1.259,0.107,1.714l10.563,15.392
						c0.311,0.454,0.821,1.197,1.131,1.65l1.221,1.778c0.309,0.453,0.246,1.142-0.143,1.531l-1.524,1.524l-1.414,1.414l-4.419,4.419
						l-1.414,1.414l-4.417,4.419l-1.415,1.415l-1.525,1.524c-0.388,0.389-1.078,0.454-1.532,0.142l-1.778-1.22
						c-0.454-0.312-1.196-0.82-1.648-1.132l-15.722-10.79c-0.453-0.312-1.228-0.367-1.722-0.125l-15.365,6.289
						c-0.522,0.173-1.03,0.757-1.132,1.297l-3.506,18.838c-0.099,0.542-0.266,1.426-0.365,1.966l-0.396,2.12
						c-0.099,0.54-0.633,0.982-1.182,0.982h-2.156h-2h-6.25h-2h-6.25h-2h-2.155c-0.55,0-1.083-0.442-1.182-0.983l-0.395-2.119
						c-0.101-0.54-0.266-1.424-0.365-1.966l-3.506-18.838c-0.101-0.54-0.609-1.124-1.133-1.297l-15.365-6.289
						c-0.493-0.242-1.269-0.187-1.722,0.125l-15.722,10.79c-0.454,0.312-1.196,0.82-1.649,1.132l-1.778,1.22
						c-0.454,0.312-1.143,0.247-1.532-0.142l-1.525-1.524l-1.414-1.415l-4.419-4.42l-1.414-1.414l-4.418-4.418l-1.414-1.414
						l-1.524-1.524c-0.389-0.389-0.453-1.078-0.142-1.531l1.22-1.778c0.31-0.454,0.82-1.197,1.131-1.65l10.563-15.392
						c0.311-0.455,0.359-1.225,0.107-1.714l-6.794-15.849c-0.182-0.521-0.772-1.028-1.312-1.128l-18.075-3.363
						c-0.541-0.1-1.426-0.266-1.967-0.364l-2.12-0.395c-0.541-0.102-0.983-0.634-0.983-1.184l0.001-2.156v-2v-6.25v-2v-6.247v-2
						v-2.156c0-0.549,0.443-1.083,0.984-1.183l2.119-0.394c0.541-0.1,1.426-0.266,1.967-0.367l17.531-3.262
						c0.541-0.099,1.119-0.611,1.284-1.137l6.748-16.859c0.242-0.493,0.185-1.27-0.127-1.723l-9.928-14.467
						c-0.312-0.454-0.822-1.196-1.132-1.648l-1.221-1.78c-0.31-0.453-0.247-1.142,0.142-1.532l1.525-1.524l1.414-1.414l4.421-4.421
						l1.414-1.414l4.417-4.416l1.414-1.415l1.526-1.524c0.388-0.388,1.078-0.452,1.532-0.141l1.777,1.219
						c0.453,0.311,1.195,0.822,1.648,1.132l14.152,9.711c0.453,0.311,1.212,0.336,1.685,0.058l2.938-1.653
						c0.484-0.261,1.282-0.677,1.771-0.927l3.043-1.559c0.492-0.249,1.063-0.039,1.274,0.469l1.307,3.158
						c0.211,0.508,0.554,1.34,0.766,1.848l12.276,29.668c0.211,0.506,0.555,1.339,0.767,1.846l0.869,2.102
						c0.211,0.508-0.002,1.158-0.47,1.445l-1.94,1.187c-0.358,0.218-0.845,0.595-1.227,0.939
						c-6.999,4.483-11.641,12.323-11.641,21.25c0,13.933,11.294,25.226,25.226,25.226c13.932,0,25.226-11.293,25.226-25.226
						c0-8.928-4.643-16.767-11.642-21.25c-0.381-0.344-0.867-0.719-1.227-0.939l-1.939-1.187c-0.467-0.287-0.68-0.937-0.469-1.445
						l0.869-2.102c0.211-0.508,0.554-1.34,0.765-1.846l12.276-29.668c0.211-0.508,0.555-1.34,0.765-1.848l1.309-3.158
						c0.211-0.508,0.782-0.719,1.274-0.469l3.042,1.559c0.492,0.25,1.288,0.666,1.772,0.927l2.937,1.653
						c0.474,0.278,1.233,0.253,1.686-0.058l14.152-9.711c0.453-0.31,1.197-0.821,1.648-1.132l1.78-1.219
						c0.453-0.311,1.142-0.247,1.531,0.141l1.524,1.524l1.415,1.415l4.417,4.418l1.414,1.414l4.421,4.419l1.414,1.414l1.526,1.524
						c0.388,0.388,0.452,1.079,0.141,1.532l-1.221,1.78c-0.311,0.452-0.821,1.194-1.132,1.648l-9.929,14.467
						c-0.311,0.453-0.369,1.228-0.127,1.723l6.748,16.859c0.166,0.525,0.745,1.037,1.284,1.137l17.532,3.262
						c0.541,0.101,1.426,0.267,1.967,0.367l2.118,0.394c0.541,0.1,0.983,0.634,0.983,1.183v2.156v2v6.247v2l0.001,6.25v2
						l0.001,2.156C-162.519,180.759-162.961,181.29-163.502,181.392"/>
				</g>
				<g id="g3026" transform="translate(575.0156,351.7285)">
					<path id="path3028" inkscape:connector-curvature="0" d="M-163.501,181.392c-1.75,8.04-5.014,15.513-9.49,22.096l13.573,19.783
						l-5.833,5.832l-5.833,5.835l-20.045-13.757c-6.511,4.207-13.831,7.268-21.687,8.865l0.003,0.001l-4.469,24.025h-8.249h-8.249
						l-4.47-24.025l0.003-0.001c-7.856-1.597-15.177-4.659-21.688-8.865l-20.043,13.757l-5.834-5.835l-5.833-5.832l13.575-19.783
						c-4.479-6.583-7.742-14.056-9.492-22.096l-23.22-4.319l0.001-8.251v-8.247l22.791-4.242c1.538-8.419,4.74-16.253,9.247-23.158
						l-12.903-18.801l5.834-5.833l5.833-5.833l18.554,12.732c2.245-1.541,4.591-2.945,7.031-4.193l13.043,31.517
						c-8.728,5.336-14.555,14.953-14.555,25.935c0,16.775,13.6,30.375,30.376,30.375c16.773,0,30.374-13.6,30.374-30.375
						c0-10.981-5.825-20.599-14.555-25.935l13.041-31.517c2.44,1.249,4.786,2.652,7.032,4.193l18.554-12.732l5.833,5.833
						l5.835,5.833l-12.904,18.801c4.506,6.905,7.709,14.739,9.249,23.158l22.79,4.242v8.247v8.251L-163.501,181.392z"/>
				</g>
			</g>
		</g>
	</g>
</g>
</svg>
