<?xml version="1.0" encoding="utf-8"?>
<!-- Generator: Adobe Illustrator 16.0.0, SVG Export Plug-In . SVG Version: 6.00 Build 0)  -->
<!DOCTYPE svg PUBLIC "-//W3C//DTD SVG 1.1//EN" "http://www.w3.org/Graphics/SVG/1.1/DTD/svg11.dtd">
<svg version="1.1" id="Layer_1" xmlns="http://www.w3.org/2000/svg" xmlns:xlink="http://www.w3.org/1999/xlink" x="0px" y="0px"
	 width="20px" height="20px" viewBox="278.4 405.6 20 20" enable-background="new 278.4 405.6 20 20" xml:space="preserve">
<path fill="#000099" d="M288.4,425.6c5.514,0,10-4.486,10-10s-4.486-10-10-10s-10,4.486-10,10S282.886,425.6,288.4,425.6z
	 M291.198,423.645c0.635-0.703,1.181-1.526,1.623-2.444c0.477,0.18,0.94,0.388,1.385,0.626
	C293.348,422.625,292.327,423.25,291.198,423.645z M295.219,420.7c-0.588-0.337-1.202-0.63-1.841-0.872
	c0.366-1.082,0.603-2.256,0.685-3.487h2.822C296.744,417.966,296.146,419.463,295.219,420.7z M296.884,414.859h-2.821
	c-0.082-1.23-0.317-2.404-0.685-3.488c0.639-0.242,1.253-0.534,1.84-0.871C296.146,411.736,296.744,413.233,296.884,414.859z
	 M294.206,409.374c-0.445,0.238-0.908,0.446-1.385,0.626c-0.443-0.919-0.992-1.743-1.629-2.447
	C292.323,407.947,293.347,408.572,294.206,409.374z M289.141,407.665c0.908,0.686,1.671,1.635,2.25,2.767
	c-0.728,0.174-1.479,0.285-2.25,0.328V407.665z M289.141,412.241c0.971-0.048,1.918-0.192,2.83-0.428
	c0.321,0.942,0.534,1.967,0.612,3.046h-3.441V412.241z M289.141,416.34h3.44c-0.078,1.08-0.29,2.104-0.61,3.047
	c-0.912-0.235-1.859-0.38-2.831-0.428V416.34z M289.141,420.439c0.771,0.043,1.523,0.155,2.251,0.329
	c-0.579,1.136-1.343,2.085-2.251,2.771V420.439z M282.594,421.825c0.444-0.238,0.906-0.445,1.382-0.624
	c0.442,0.916,0.989,1.739,1.625,2.442C284.472,423.25,283.451,422.625,282.594,421.825z M287.659,423.54
	c-0.909-0.687-1.674-1.637-2.252-2.771c0.728-0.174,1.481-0.286,2.252-0.329V423.54z M287.659,418.959
	c-0.972,0.048-1.919,0.192-2.832,0.428c-0.32-0.943-0.532-1.968-0.61-3.047h3.442V418.959z M287.659,414.859h-3.44
	c0.079-1.079,0.292-2.104,0.612-3.045c0.912,0.234,1.858,0.379,2.829,0.427V414.859z M287.659,407.665v3.095
	c-0.77-0.043-1.521-0.154-2.249-0.328C285.989,409.299,286.752,408.351,287.659,407.665z M285.61,407.553
	c-0.638,0.703-1.186,1.528-1.628,2.448c-0.478-0.18-0.942-0.388-1.388-0.627C283.453,408.572,284.478,407.946,285.61,407.553z
	 M281.581,410.5c0.588,0.338,1.203,0.63,1.844,0.872c-0.366,1.082-0.604,2.255-0.687,3.486h-2.822
	C280.056,413.233,280.653,411.736,281.581,410.5z M282.736,416.34c0.081,1.231,0.316,2.405,0.683,3.489
	c-0.638,0.241-1.252,0.533-1.838,0.87c-0.927-1.236-1.524-2.733-1.665-4.359H282.736z"/>
<text transform="matrix(1 0 0 1 256 515.1992)" font-family="'HelveticaNeue-Bold'" font-size="22.4">Created by David</text>
<text transform="matrix(1 0 0 1 256 537.6016)" font-family="'HelveticaNeue-Bold'" font-size="22.4">from the Noun Project</text>
</svg>
