<?xml version="1.0" encoding="utf-8"?>
<!-- Generator: Adobe Illustrator 16.0.0, SVG Export Plug-In . SVG Version: 6.00 Build 0)  -->
<!DOCTYPE svg PUBLIC "-//W3C//DTD SVG 1.1//EN" "http://www.w3.org/Graphics/SVG/1.1/DTD/svg11.dtd">
<svg version="1.1" id="Layer_1" xmlns="http://www.w3.org/2000/svg" xmlns:xlink="http://www.w3.org/1999/xlink" x="0px" y="0px"
	 width="556.213px" height="553.174px" viewBox="121.867 123.413 556.213 553.174"
	 enable-background="new 121.867 123.413 556.213 553.174" xml:space="preserve">
<g>
	<g>
		<polygon fill="#602480" points="234.827,234.88 248.427,253.013 221.173,273.387 207.573,255.253 		"/>
		<polygon fill="#602480" points="289.28,194.08 302.88,212.213 275.68,232.64 262.08,214.453 		"/>
		<polygon fill="#602480" points="544.8,206.453 516.106,200.96 519.946,178.613 548.64,184.053 		"/>
		<polygon fill="#602480" points="452.854,167.2 486.4,172.907 482.56,195.253 449.014,189.547 		"/>
		<polygon fill="#602480" points="385.76,155.733 419.307,161.44 415.467,183.787 381.92,178.08 		"/>
		<polygon fill="#602480" points="321.44,514.187 338.08,543.894 318.293,554.986 301.653,525.333 		"/>
		
			<rect x="269.552" y="463.935" transform="matrix(0.4895 0.872 -0.872 0.4895 560.7212 -7.2646)" fill="#602480" width="34.026" height="22.667"/>
		<polygon fill="#602480" points="457.12,563.573 467.787,583.627 437.76,599.627 427.094,579.573 		"/>
		
			<rect x="496.177" y="532.659" transform="matrix(0.4698 0.8828 -0.8828 0.4698 754.3467 -156.5709)" fill="#602480" width="22.668" height="34.027"/>
		<polygon fill="#602480" points="577.28,499.68 587.946,519.733 557.92,535.68 547.253,515.68 		"/>
		<path fill="#602480" d="M578.24,239.04L578.24,239.04l-4.16-0.053c-14.773,0-35.36-13.44-35.36-35.36
			c0-24.32,14.187-40.693,35.36-40.693c25.12,0,40.693,18.347,40.693,35.36c0,15.68-4.533,27.146-13.493,33.973
			C593.387,238.347,584.32,239.04,578.24,239.04z M574.08,185.653c-11.04,0-12.64,11.253-12.64,18.027
			c0,8.747,10.079,12.64,12.64,12.64l4.16,0.054l0,0c3.04,0,6.88-0.213,9.279-2.08c2.934-2.293,4.587-7.947,4.587-16
			C592.054,194.027,586.613,185.653,574.08,185.653z"/>
		<path fill="#602480" d="M641.547,505.76L641.547,505.76l-4.16-0.053c-14.773,0-35.36-13.44-35.36-35.36
			c0-24.32,14.187-40.693,35.36-40.693c25.12,0,40.693,18.347,40.693,35.36c0,15.68-4.533,27.146-13.493,33.973
			C656.747,505.066,647.68,505.76,641.547,505.76z M637.439,452.32c-11.039,0-12.64,11.253-12.64,18.026
			c0,8.747,10.08,12.64,12.64,12.64l4.16,0.054l0,0c3.04,0,6.881-0.214,9.28-2.08c2.987-2.293,4.587-7.946,4.587-16
			C655.413,460.747,649.974,452.32,637.439,452.32z"/>
		<path fill="#602480" d="M551.52,676.587L551.52,676.587l-4.159-0.054c-14.773,0-35.36-13.439-35.36-35.359
			c0-24.32,14.187-40.693,35.36-40.693c25.12,0,40.693,18.346,40.693,35.359c0,15.68-4.534,27.146-13.494,33.974
			C566.72,675.894,557.653,676.587,551.52,676.587z M547.36,623.2c-11.04,0-12.641,11.253-12.641,18.026
			c0,8.747,10.08,12.641,12.641,12.641l4.159,0.053l0,0c3.041,0,6.881-0.213,9.28-2.08c2.934-2.293,4.587-7.946,4.587-16
			C565.387,631.573,559.946,623.2,547.36,623.2z"/>
		<path fill="#602480" d="M372.427,659.68L372.427,659.68l-4.16-0.053c-14.773,0-35.36-13.44-35.36-35.36
			c0-24.32,14.188-40.693,35.36-40.693c25.12,0,40.693,18.347,40.693,35.36c0,15.68-4.533,27.146-13.493,33.973
			C387.627,658.986,378.56,659.68,372.427,659.68z M368.267,606.24c-10.453,0-12.64,9.813-12.64,18.026
			c0,8.747,10.08,12.693,12.64,12.693l4.16,0.054l0,0c3.04,0,6.88-0.267,9.28-2.08c2.933-2.294,4.586-7.947,4.586-16
			C386.293,614.667,380.854,606.24,368.267,606.24z"/>
		<path fill="#602480" d="M231.787,616.587L231.787,616.587l-4.16-0.054c-14.773,0-35.36-13.439-35.36-35.359
			c0-24.374,14.187-40.693,35.36-40.693c25.12,0,40.693,18.346,40.693,35.359c0,15.68-4.533,27.146-13.493,33.974
			C246.987,615.894,237.92,616.587,231.787,616.587z M227.68,563.146c-11.04,0-12.64,11.307-12.64,18.027
			c0,8.746,10.08,12.64,12.64,12.64l4.16,0.054l0,0c3.04,0,6.88-0.214,9.28-2.08c2.933-2.294,4.586-7.947,4.586-16
			C245.653,571.573,240.213,563.146,227.68,563.146z"/>
		<path fill="#602480" d="M263.467,475.253L263.467,475.253l-4.16-0.053c-14.773,0-35.36-13.44-35.36-35.36
			c0-24.32,14.187-40.693,35.36-40.693c25.12,0,40.693,18.347,40.693,35.36c0,15.68-4.533,27.146-13.44,33.974
			C278.667,474.56,269.6,475.253,263.467,475.253z M259.307,421.867c-11.04,0-12.693,11.253-12.693,18.026
			c0,8.746,10.08,12.64,12.693,12.64l4.16,0.054l0,0c3.04,0,6.88-0.214,9.28-2.08c2.934-2.294,4.587-7.947,4.587-16
			C277.333,430.24,271.894,421.867,259.307,421.867z"/>
		<path fill="#602480" d="M186.24,299.573l7.68-5.76l-13.6-18.187l-8.32,6.187C180.213,285.92,185.12,292.907,186.24,299.573z"/>
		<path fill="#602480" d="M161.387,343.2L161.387,343.2l-4.16-0.054c-14.773,0-35.36-13.44-35.36-35.36
			c0-24.32,14.187-40.693,35.36-40.693c25.12,0,40.693,18.347,40.693,35.36c0,15.68-4.533,27.147-13.493,33.974
			C176.587,342.453,167.52,343.2,161.387,343.2z M157.227,289.76c-11.04,0-12.64,11.307-12.64,18.027
			c0,8.747,10.08,12.693,12.64,12.693l4.16,0.053l0,0c3.04,0,6.88-0.213,9.28-2.08c2.934-2.293,4.587-7.946,4.587-16
			C175.253,298.133,169.813,289.76,157.227,289.76z"/>
		<path fill="#602480" d="M337.653,164.106c0-2.293,0.213-4.479,0.48-6.613l-21.601,16.16l13.601,18.133l14.88-11.146
			C340.8,176.747,337.653,171.2,337.653,164.106z"/>
		<path fill="#602480" d="M365.813,199.52L365.813,199.52l-4.16-0.053c-14.773,0-35.36-13.44-35.36-35.36
			c0-24.32,14.188-40.693,35.36-40.693c25.12,0,40.693,18.347,40.693,35.36c0,15.68-4.533,27.146-13.493,33.973
			C380.96,198.773,371.894,199.52,365.813,199.52z M361.653,146.08c-11.04,0-12.64,11.253-12.64,18.026
			c0,8.747,10.08,12.64,12.64,12.64l4.16,0.053l0,0c3.04,0,6.88-0.213,9.28-2.08c2.933-2.293,4.586-7.947,4.586-16
			C379.627,154.453,374.24,146.08,361.653,146.08z"/>
		<path fill="#602480" d="M227.68,551.84c7.52,0,13.653,2.24,18.453,5.493l18.72-93.439c-2.133,0.053-4-0.054-5.44-0.054
			c-4.373,0-11.04-2.399-16.267-7.093L224,552.213C225.173,552.054,226.347,551.84,227.68,551.84z"/>
		<path fill="#602480" d="M366.826,595.04l-12.053-21.493l-19.787,11.093l12.801,22.827
			C351.36,600.267,357.707,595.52,366.826,595.04z"/>
		<path fill="#602480" d="M344.8,629.014c-0.319-1.494-0.533-3.094-0.533-4.747c0-6.826,1.44-13.014,4.267-17.974l-91.573-30.986
			c0,0.16,0.053,0.373,0.053,0.533c0,10.453-2.293,17.174-5.653,21.547L344.8,629.014z"/>
		<path fill="#602480" d="M397.653,618.934c0,0.746-0.054,1.387-0.106,2.133l10.187-5.439l-10.667-20.054l-9.813,5.227
			C393.92,605.707,397.653,612.747,397.653,618.934z"/>
		<path fill="#602480" d="M615.307,479.253l-64.64,132.907c9.066,0.8,16,4.8,20.373,9.92l62.399-128.267
			C627.094,492.32,618.934,487.467,615.307,479.253z"/>
		<path fill="#602480" d="M369.547,180.053l-22.24,4.374l17.014,86.827c9.333,0.48,17.387,2.453,24.213,5.493L369.547,180.053z"/>
		<path fill="#602480" d="M280.8,418.347c5.12,4.693,7.894,10.773,7.894,16.16c0,1.866-0.107,3.627-0.213,5.28l46.454-21.174
			c-4.641-5.76-9.227-12.053-13.601-18.72L280.8,418.347z"/>
		<path fill="#602480" d="M298.08,330.133l-112-20.106c-1.92,14.506-9.387,19.466-16.64,21.066l68.907,93.546
			c3.253-7.466,9.333-12.587,18.24-13.493l-55.521-75.413L300.32,353.6c-1.547-6.613-2.4-13.387-2.4-20.107
			C297.92,332.32,298.026,331.253,298.08,330.133z"/>
		<path fill="#602480" d="M363.094,595.467c1.653-0.32,3.359-0.533,5.173-0.533c6.88,0,12.587,1.813,17.174,4.64L400,473.867
			c-5.174-0.641-11.146-3.414-21.493-11.521L363.094,595.467z"/>
		<path fill="#602480" d="M527.36,623.733c3.733-6.986,10.133-11.573,19.413-11.787L442.453,450.24
			c-5.547,5.173-11.573,10.347-17.6,14.56L527.36,623.733z"/>
		<polygon fill="#602480" points="404.64,433.493 404.906,431.253 403.68,432 		"/>
		<path fill="#602480" d="M597.333,221.173c-6.293,7.573-15.894,7.414-21.6,7.307l48.213,206.454L496.054,379.84
			c-3.307,6.934-7.094,13.6-11.147,19.894l130.987,56.427c3.413-9.014,10.453-15.2,21.546-15.2c4.374,0,8.214,0.8,11.681,2.026
			L597.333,221.173z"/>
		<path fill="#602480" d="M497.547,299.36l69.706-72.32c-6.399-2.347-13.546-7.627-16.159-15.947l-69.227,71.894
			C488,287.467,493.333,292.96,497.547,299.36z"/>
	</g>
	<path fill="#2D9ED3" d="M445.387,290.934c-35.467,0-42.507,31.2-42.507,31.2s-5.653-31.2-42.56-31.2
		c-23.521,0-42.561,19.04-42.561,42.506c0,55.52,77.493,120.747,85.066,120.747c10.4,0,85.067-65.92,85.067-120.747
		C487.894,309.973,468.854,290.934,445.387,290.934z"/>
</g>
</svg>
